<?xml version="1.0" encoding="utf-8"?>
<!-- Generator: Adobe Illustrator 19.0.0, SVG Export Plug-In . SVG Version: 6.00 Build 0)  -->
<svg version="1.1" id="Layer_1" xmlns="http://www.w3.org/2000/svg" xmlns:xlink="http://www.w3.org/1999/xlink" x="0px" y="0px"
	 viewBox="0 0 1460 252.1" style="enable-background:new 0 0 1460 252.1;" xml:space="preserve">
<style type="text/css">
	.st0{fill:#353A40;}
</style>
<g>
	<path class="st0" d="M233,206.3c0-1.1,0-2.2,0-3.3c0-6.5,0-13,0-19.4c0-1.1-0.3-1.3-1.4-1.3c-32.2,0-64.3,0-96.5,0
		c-12.3,0-24.5,0-36.8,0c-5.3,0-10.7,0-16,0c-3.9,0-7.7,0-11.6,0c-0.8,0-1.1-0.3-1.3-0.9c-3.7-9.8-7.4-19.5-11.1-29.3
		c-1.9-5-3.7-10-5.6-15c-1.7-4.6-3.5-9.1-5.2-13.7c-3.9-10.4-7.9-20.7-11.8-31.1c-3.8-9.9-7.5-19.8-11.2-29.8
		c-1.2-3.1-2.3-6.3-3.6-9.3c-0.2-0.6-0.1-0.6,0.4-0.6c1,0,2.1,0,3.1,0c31,0,61.9,0,92.9,0c11.8,0,23.6,0,35.4,0
		c27.9,0,55.8,0,83.7,0c1,0,1.6-0.3,2.3-1c7-7.3,14-14.6,21.1-21.8c4.1-4.3,8.2-8.6,12.4-12.9c2-2.1,4-4.1,6-6.2
		c0.4-0.4,0.9-0.6,1.5-0.6c13.8,0,27.6,0,41.4,0c1,0,1.2,0.3,1.2,1.2c0,29.8,0,59.7,0,89.5c0,15.9,0,31.8,0,47.6c0,0.6,0,1,0.7,1.3
		c6.7,3.2,10.8,8.8,13.5,15.5c1.9,4.6,2.8,9.5,2.9,14.5c0,0.8,0,1.5,1,1.9c1.1,0.5,1.5,1.9,1.1,3.1c-0.3,1.1-1.3,1.9-2.6,1.9
		c-2.4,0-4.8,0.1-7.2,0c-1,0-1.3,0.3-1.2,1.3c0,4.8,0,9.5,0,14.3c0,2.1-1,3-3.1,3.1c-2.3,0-3.3-0.9-3.3-3c0-4.8,0-9.6,0-14.4
		c0-0.9-0.1-1.2-1.1-1.2c-4.8,0.1-9.7,0-14.5,0c-0.9,0-1.2,0.3-1.2,1.2c0,4.7,0,9.4,0,14c0,0.6,0,1.3-0.3,1.9
		c-0.4,0.7-0.9,1.3-1.9,1.2c-0.3-0.1-0.7,0-1.1,0.1c-2,0.4-3.2-0.5-3.2-2.5c0-2.5,0-5,0-7.4c0-2.4,0-4.9,0-7.3c0-0.9-0.3-1.1-1.1-1
		c-2.3,0-4.6,0-6.8,0c-1.8,0-2.8-0.6-3.2-2c-0.4-1.4,0-2.3,1.6-3.3c0.5-0.3,0.4-0.6,0.4-1c0.2-2.6,0.3-5.2,0.8-7.7
		c1.5-7.2,4.3-13.7,9.7-18.8c1.7-1.6,3.5-2.9,5.6-3.8c0.8-0.4,1-0.9,1-1.7c0-19.7,0-39.4,0-59c0-20.4,0-40.7,0-61.1
		c0-1-0.4-1.3-1.3-1.3c-7,0-13.9,0-20.9,0c-0.8,0-1.3,0.4-1.7,0.9c-4.2,4.4-8.4,8.7-12.7,13.1c-6,6.2-11.9,12.4-17.9,18.6
		c-1.3,1.3-2.5,2.7-3.8,3.9c-0.7,0.7-1,1.4-1,2.4c0,12.6,0,25.2,0,37.8c0,40.2,0,80.4,0,120.6c0,0.9-0.2,1.1-1.1,1.1
		c-4.7-0.1-9.4,0-14-0.1c-0.7,0-1,0.3-1.2,0.9c-1.5,4.4-4.2,8-7.7,10.9c-4.4,3.6-9.4,5.5-15,5.8c-6.4,0.3-12.1-1.5-17.2-5.4
		c-3-2.3-5.3-5.1-7-8.4c-0.5-1.1-1.3-2.1-1.5-3.3c-0.1-0.6-0.7-0.4-1.1-0.4c-6.4,0-12.7,0-19.1,0c-15.9,0-31.8,0-47.6,0
		c-0.9,0-1.4,0.2-1.8,1.1c-3.9,9.5-11,15.1-21.2,16.3c-9.3,1.1-17.1-2.2-22.9-9.5c-6.2-7.9-7.3-16.7-3.6-25.9
		c3.6-8.7,10.3-14,19.5-15.5c9.7-1.6,17.8,1.8,24.2,9.3c1.6,1.9,2.8,4,3.7,6.4c0.3,0.8,0.7,1.1,1.6,1.1c8,0,16.1,0.1,24.1,0.1
		c11.2,0,22.4,0,33.7-0.1c2.9,0,5.8-0.1,8.8,0c1.5,0.1,2.1-0.6,2.6-1.8c1.2-3.3,3.3-6,5.8-8.3c5.6-5.2,12.4-7.6,20-6.9
		c7.4,0.7,13.3,4.1,18,9.8C230.9,202.8,232,204.5,233,206.3z M45.2,69.3c0.1,0.4,0.2,0.6,0.2,0.8c1.8,4.7,3.5,9.3,5.3,14
		c3.9,10.3,7.8,20.6,11.7,31c2.9,7.8,5.8,15.5,8.8,23.3c3.2,8.5,6.5,17.1,9.7,25.6c0.4,1.2,1,1.6,2.3,1.6c27.3,0,54.6,0,82,0
		c22.2,0,44.4,0,66.6,0c0.9,0,1.3-0.1,1.3-1.2c0-26.6,0-53.1,0-79.7c0-4.8,0-9.5,0-14.3c0-0.5,0.1-1.1-0.8-1.1
		c-4.6,0.1-9.3,0-13.9,0c-4.5,0-9,0.1-13.5,0.1c-23.3,0-46.6,0-69.9,0c-20.2,0-40.4,0.2-60.6,0c-5.6-0.1-11.3,0-16.9,0
		C53.4,69.3,49.4,69.3,45.2,69.3z M209.3,208.1c-4.6-0.4-9,4.2-8.9,8.9c0,5,4.1,9,9.2,8.9c5-0.1,8.7-4,8.8-9.1
		C218.4,212.1,213.7,207.7,209.3,208.1z M91.3,208.1c-5,0-8.8,3.9-8.9,8.9c-0.1,4.7,4.1,9.1,9,9c4.9-0.1,8.9-4,8.9-8.9
		C100.4,212.1,96.3,208.1,91.3,208.1z M315.7,163.5c-2.4,0-4.3,1.8-4.3,4.2c0,2.4,1.9,4.5,4.3,4.5c2.2,0,4.3-2.1,4.3-4.4
		C320,165.5,318,163.4,315.7,163.5z"/>
</g>
<g>
	<path class="st0" d="M535,63c0,7.3-2.9,13.4-8.6,18.4c-5.5,4.7-11.9,7.1-19.2,7.1c-7.4,0-13.9-2.4-19.4-7.1
		c-5.8-5-8.6-11.1-8.6-18.4c0-2.4,0.3-4.5,0.8-6.2c-14.8,0.1-28.3,7.8-40.5,23.1c-11.4,14.4-17.1,29.3-17.1,44.5
		c0,28.6,18.7,43,56.1,43h52.3c-2.2,11.1-10.6,16.6-25.3,16.6h-38.4c-23.9,0-43.3-3.5-58.2-10.4c-20.5-9.6-30.6-25.1-30.4-46.7
		c0.1-12.1,3.8-24.1,11.1-36.2c9.9-16.5,24-29.5,42.2-39.1c17.7-9.3,36.5-13.9,56.4-13.9H509c6.7,0,12.7,2.6,18,7.7
		C532.4,50.4,535,56.3,535,63z"/>
	<path class="st0" d="M707.2,113.2c-2.8,11.1-11.1,16.6-25,16.6h-65.1c2.3,1.5,4.2,4.3,5.6,8.4c1.5,4.1,2,7.6,1.8,10.6
		c-1,11.6-6.1,20.7-15.3,27.2c-8.8,6.3-20.2,9.5-34.3,9.6c-16.4,0.1-28.9-3.1-37.8-9.7c-7.8-5.8-11.8-13.5-11.8-23
		c0-1.9,0.2-3.7,0.5-5.6c1.8-10.5,7-18.7,15.6-24.6c9.2-6.3,21.4-9.5,36.6-9.5H707.2z M593.8,129.8H570l-9.4,26.6
		c-0.5,1.4-0.7,2.7-0.7,4c0,6,5.5,8.9,16.6,8.9c1.3,0,2.5,0,3.4-0.1L593.8,129.8z"/>
	<path class="st0" d="M857.8,167.3c-2,11.1-9.9,16.6-23.6,16.6h-42.2c-3.3,0-6.4-1.4-9.2-4.1c-2.8-2.7-4.2-5.8-4.2-9.3
		c0-1.1,0.1-2.2,0.4-3.2c1.5-5.1,3.8-12.6,6.9-22.4l-35.2,29.4c-8.9,7.3-16.5,11-22.8,11c-9.4,0-14.1-3.5-14.1-10.6
		c0-2.3,0.5-4.8,1.6-7.5l8.3-22.4l-41.4,34.5c-3.5,3-7.9,4.5-13.2,4.5h-21.2l24.9-70.7h37.5l-11.8,33.3l31.9-26.2
		c8-6.6,16.9-9.9,26.8-9.9c8.2,0,12.3,3.2,12.3,9.5c0,1.8-0.4,3.8-1.1,5.9l-7.5,20.7l31.1-26.4c7.6-6.4,15.9-9.7,25.2-9.7
		c8.7,0,13.1,3.7,13.1,11.1c0,2.5-0.6,5.3-1.7,8.3l-13.4,37.4H857.8z"/>
	<path class="st0" d="M993.7,167.3c-0.6,5.3-3.4,9.5-8.4,12.6c-4.4,2.7-9.7,4.1-15.7,4.1h-56.7c-8.5,0-12.9-4.4-13.1-13.2
		c3.2-1.3,6.4-2.6,9.7-3.8c4.6-2.1,8-4.6,10.4-7.6c3.2-4,4.8-9,4.8-15.2c0-3.8-1.8-7.2-5.3-10.1s-7.5-4.3-11.8-4.2L875,224h-37.8
		L884.2,88h37.6l-8.6,25.2c15.6,0,25.9,0.7,31,2.2c12.3,3.4,18.3,11.3,17.8,23.8c-0.3,5.5-2.7,11.1-7.4,16.7
		c-4.8,5.8-10.3,9.6-16.5,11.3H993.7z"/>
	<path class="st0" d="M1185.2,37.6l-44.1,126.6c-2.2,6.1-5.9,10.9-11.1,14.5c-5.3,3.5-11.1,5.3-17.6,5.3h-80.5
		c1.7-6.2,4.9-11.1,9.7-14.7c4.8-3.6,10.4-5.4,17-5.4h44.9l21.9-61.7l-31.3,33.2c-6.4,6.8-15,10.2-25.8,10.2
		c-6.2,0-11.5-1.4-15.8-4.2c-4.9-3.2-7.4-7.8-7.4-13.7c0-2.8,0.5-5.7,1.5-8.5l21.9-61.5h-18.7c0.3,1.9,0.4,3.6,0.4,4.9
		c0,6.9-2.7,12.7-8.1,17.6c-5.4,4.9-11.9,7.3-19.5,7.3c-7.6,0-14.1-2.4-19.6-7.3c-5.4-4.9-8.1-10.7-8.1-17.6
		c0-7.2,2.8-13.2,8.5-18.1c5.4-4.6,11.7-6.9,18.9-6.9h67.6c4.8,0,8.7,1.4,11.6,4.2c3,2.8,4.5,6.6,4.5,11.4c0,2.7-0.5,5.4-1.5,8.2
		l-22.2,62.2l61.2-78.3c1.6-2.1,4.2-3.9,7.7-5.4c3.5-1.5,6.7-2.3,9.4-2.3H1185.2z"/>
	<path class="st0" d="M1350.4,113.2c-2.8,11.1-11.1,16.6-25,16.6h-65.1c2.3,1.5,4.2,4.3,5.6,8.4c1.5,4.1,2,7.6,1.8,10.6
		c-1,11.6-6.1,20.7-15.3,27.2c-8.8,6.3-20.2,9.5-34.3,9.6c-16.4,0.1-28.9-3.1-37.8-9.7c-7.8-5.8-11.8-13.5-11.8-23
		c0-1.9,0.2-3.7,0.5-5.6c1.8-10.5,7-18.7,15.6-24.6c9.2-6.3,21.4-9.5,36.6-9.5H1350.4z M1237.1,129.8h-23.8l-9.4,26.6
		c-0.5,1.4-0.7,2.7-0.7,4c0,6,5.5,8.9,16.6,8.9c1.3,0,2.5,0,3.4-0.1L1237.1,129.8z"/>
	<path class="st0" d="M1435.2,167.3c-1.5,5.8-4.6,10.1-9.6,13.1c-3.9,2.4-8,3.5-12.4,3.5h-43.5c-10.2,0-15.3-3.3-15.3-9.8
		c-5.4,6.5-12.7,9.8-21.9,9.8h-18.3c-5.6,0-10-1.5-13.1-4.4c-2.9-2.7-4.4-6.3-4.4-10.7c0-2.5,0.5-5.1,1.5-7.7l17.5-47.9h37.8
		l-19.4,54.1h21.1l19.3-54.1h37.3l-18.9,54.1H1435.2z"/>
</g>
<g>
	<path class="st0" d="M535,63c0,7.3-2.9,13.4-8.6,18.4c-5.5,4.7-11.9,7.1-19.2,7.1c-7.4,0-13.9-2.4-19.4-7.1
		c-5.8-5-8.6-11.1-8.6-18.4c0-2.4,0.3-4.5,0.8-6.2c-14.8,0.1-28.3,7.8-40.5,23.1c-11.4,14.4-17.1,29.3-17.1,44.5
		c0,28.6,18.7,43,56.1,43h52.3c-2.2,11.1-10.6,16.6-25.3,16.6h-38.4c-23.9,0-43.3-3.5-58.2-10.4c-20.5-9.6-30.6-25.1-30.4-46.7
		c0.1-12.1,3.8-24.1,11.1-36.2c9.9-16.5,24-29.5,42.2-39.1c17.7-9.3,36.5-13.9,56.4-13.9H509c6.7,0,12.7,2.6,18,7.7
		C532.4,50.4,535,56.3,535,63z"/>
	<path class="st0" d="M707.2,113.2c-2.8,11.1-11.1,16.6-25,16.6h-65.1c2.3,1.5,4.2,4.3,5.6,8.4c1.5,4.1,2,7.6,1.8,10.6
		c-1,11.6-6.1,20.7-15.3,27.2c-8.8,6.3-20.2,9.5-34.3,9.6c-16.4,0.1-28.9-3.1-37.8-9.7c-7.8-5.8-11.8-13.5-11.8-23
		c0-1.9,0.2-3.7,0.5-5.6c1.8-10.5,7-18.7,15.6-24.6c9.2-6.3,21.4-9.5,36.6-9.5H707.2z M593.8,129.8H570l-9.4,26.6
		c-0.5,1.4-0.7,2.7-0.7,4c0,6,5.5,8.9,16.6,8.9c1.3,0,2.5,0,3.4-0.1L593.8,129.8z"/>
	<path class="st0" d="M857.8,167.3c-2,11.1-9.9,16.6-23.6,16.6h-42.2c-3.3,0-6.4-1.4-9.2-4.1c-2.8-2.7-4.2-5.8-4.2-9.3
		c0-1.1,0.1-2.2,0.4-3.2c1.5-5.1,3.8-12.6,6.9-22.4l-35.2,29.4c-8.9,7.3-16.5,11-22.8,11c-9.4,0-14.1-3.5-14.1-10.6
		c0-2.3,0.5-4.8,1.6-7.5l8.3-22.4l-41.4,34.5c-3.5,3-7.9,4.5-13.2,4.5h-21.2l24.9-70.7h37.5l-11.8,33.3l31.9-26.2
		c8-6.6,16.9-9.9,26.8-9.9c8.2,0,12.3,3.2,12.3,9.5c0,1.8-0.4,3.8-1.1,5.9l-7.5,20.7l31.1-26.4c7.6-6.4,15.9-9.7,25.2-9.7
		c8.7,0,13.1,3.7,13.1,11.1c0,2.5-0.6,5.3-1.7,8.3l-13.4,37.4H857.8z"/>
	<path class="st0" d="M993.7,167.3c-0.6,5.3-3.4,9.5-8.4,12.6c-4.4,2.7-9.7,4.1-15.7,4.1h-56.7c-8.5,0-12.9-4.4-13.1-13.2
		c3.2-1.3,6.4-2.6,9.7-3.8c4.6-2.1,8-4.6,10.4-7.6c3.2-4,4.8-9,4.8-15.2c0-3.8-1.8-7.2-5.3-10.1s-7.5-4.3-11.8-4.2L875,224h-37.8
		L884.2,88h37.6l-8.6,25.2c15.6,0,25.9,0.7,31,2.2c12.3,3.4,18.3,11.3,17.8,23.8c-0.3,5.5-2.7,11.1-7.4,16.7
		c-4.8,5.8-10.3,9.6-16.5,11.3H993.7z"/>
	<path class="st0" d="M1185.2,37.6l-44.1,126.6c-2.2,6.1-5.9,10.9-11.1,14.5c-5.3,3.5-11.1,5.3-17.6,5.3h-80.5
		c1.7-6.2,4.9-11.1,9.7-14.7c4.8-3.6,10.4-5.4,17-5.4h44.9l21.9-61.7l-31.3,33.2c-6.4,6.8-15,10.2-25.8,10.2
		c-6.2,0-11.5-1.4-15.8-4.2c-4.9-3.2-7.4-7.8-7.4-13.7c0-2.8,0.5-5.7,1.5-8.5l21.9-61.5h-18.7c0.3,1.9,0.4,3.6,0.4,4.9
		c0,6.9-2.7,12.7-8.1,17.6c-5.4,4.9-11.9,7.3-19.5,7.3c-7.6,0-14.1-2.4-19.6-7.3c-5.4-4.9-8.1-10.7-8.1-17.6
		c0-7.2,2.8-13.2,8.5-18.1c5.4-4.6,11.7-6.9,18.9-6.9h67.6c4.8,0,8.7,1.4,11.6,4.2c3,2.8,4.5,6.6,4.5,11.4c0,2.7-0.5,5.4-1.5,8.2
		l-22.2,62.2l61.2-78.3c1.6-2.1,4.2-3.9,7.7-5.4c3.5-1.5,6.7-2.3,9.4-2.3H1185.2z"/>
	<path class="st0" d="M1350.4,113.2c-2.8,11.1-11.1,16.6-25,16.6h-65.1c2.3,1.5,4.2,4.3,5.6,8.4c1.5,4.1,2,7.6,1.8,10.6
		c-1,11.6-6.1,20.7-15.3,27.2c-8.8,6.3-20.2,9.5-34.3,9.6c-16.4,0.1-28.9-3.1-37.8-9.7c-7.8-5.8-11.8-13.5-11.8-23
		c0-1.9,0.2-3.7,0.5-5.6c1.8-10.5,7-18.7,15.6-24.6c9.2-6.3,21.4-9.5,36.6-9.5H1350.4z M1237.1,129.8h-23.8l-9.4,26.6
		c-0.5,1.4-0.7,2.7-0.7,4c0,6,5.5,8.9,16.6,8.9c1.3,0,2.5,0,3.4-0.1L1237.1,129.8z"/>
	<path class="st0" d="M1435.2,167.3c-1.5,5.8-4.6,10.1-9.6,13.1c-3.9,2.4-8,3.5-12.4,3.5h-43.5c-10.2,0-15.3-3.3-15.3-9.8
		c-5.4,6.5-12.7,9.8-21.9,9.8h-18.3c-5.6,0-10-1.5-13.1-4.4c-2.9-2.7-4.4-6.3-4.4-10.7c0-2.5,0.5-5.1,1.5-7.7l17.5-47.9h37.8
		l-19.4,54.1h21.1l19.3-54.1h37.3l-18.9,54.1H1435.2z"/>
</g>
<g>
	<path class="st0" d="M535,63c0,7.3-2.9,13.4-8.6,18.4c-5.5,4.7-11.9,7.1-19.2,7.1c-7.4,0-13.9-2.4-19.4-7.1
		c-5.8-5-8.6-11.1-8.6-18.4c0-2.4,0.3-4.5,0.8-6.2c-14.8,0.1-28.3,7.8-40.5,23.1c-11.4,14.4-17.1,29.3-17.1,44.5
		c0,28.6,18.7,43,56.1,43h52.3c-2.2,11.1-10.6,16.6-25.3,16.6h-38.4c-23.9,0-43.3-3.5-58.2-10.4c-20.5-9.6-30.6-25.1-30.4-46.7
		c0.1-12.1,3.8-24.1,11.1-36.2c9.9-16.5,24-29.5,42.2-39.1c17.7-9.3,36.5-13.9,56.4-13.9H509c6.7,0,12.7,2.6,18,7.7
		C532.4,50.4,535,56.3,535,63z"/>
	<path class="st0" d="M707.2,113.2c-2.8,11.1-11.1,16.6-25,16.6h-65.1c2.3,1.5,4.2,4.3,5.6,8.4c1.5,4.1,2,7.6,1.8,10.6
		c-1,11.6-6.1,20.7-15.3,27.2c-8.8,6.3-20.2,9.5-34.3,9.6c-16.4,0.1-28.9-3.1-37.8-9.7c-7.8-5.8-11.8-13.5-11.8-23
		c0-1.9,0.2-3.7,0.5-5.6c1.8-10.5,7-18.7,15.6-24.6c9.2-6.3,21.4-9.5,36.6-9.5H707.2z M593.8,129.8H570l-9.4,26.6
		c-0.5,1.4-0.7,2.7-0.7,4c0,6,5.5,8.9,16.6,8.9c1.3,0,2.5,0,3.4-0.1L593.8,129.8z"/>
	<path class="st0" d="M857.8,167.3c-2,11.1-9.9,16.6-23.6,16.6h-42.2c-3.3,0-6.4-1.4-9.2-4.1c-2.8-2.7-4.2-5.8-4.2-9.3
		c0-1.1,0.1-2.2,0.4-3.2c1.5-5.1,3.8-12.6,6.9-22.4l-35.2,29.4c-8.9,7.3-16.5,11-22.8,11c-9.4,0-14.1-3.5-14.1-10.6
		c0-2.3,0.5-4.8,1.6-7.5l8.3-22.4l-41.4,34.5c-3.5,3-7.9,4.5-13.2,4.5h-21.2l24.9-70.7h37.5l-11.8,33.3l31.9-26.2
		c8-6.6,16.9-9.9,26.8-9.9c8.2,0,12.3,3.2,12.3,9.5c0,1.8-0.4,3.8-1.1,5.9l-7.5,20.7l31.1-26.4c7.6-6.4,15.9-9.7,25.2-9.7
		c8.7,0,13.1,3.7,13.1,11.1c0,2.5-0.6,5.3-1.7,8.3l-13.4,37.4H857.8z"/>
	<path class="st0" d="M993.7,167.3c-0.6,5.3-3.4,9.5-8.4,12.6c-4.4,2.7-9.7,4.1-15.7,4.1h-56.7c-8.5,0-12.9-4.4-13.1-13.2
		c3.2-1.3,6.4-2.6,9.7-3.8c4.6-2.1,8-4.6,10.4-7.6c3.2-4,4.8-9,4.8-15.2c0-3.8-1.8-7.2-5.3-10.1s-7.5-4.3-11.8-4.2L875,224h-37.8
		L884.2,88h37.6l-8.6,25.2c15.6,0,25.9,0.7,31,2.2c12.3,3.4,18.3,11.3,17.8,23.8c-0.3,5.5-2.7,11.1-7.4,16.7
		c-4.8,5.8-10.3,9.6-16.5,11.3H993.7z"/>
	<path class="st0" d="M1185.2,37.6l-44.1,126.6c-2.2,6.1-5.9,10.9-11.1,14.5c-5.3,3.5-11.1,5.3-17.6,5.3h-80.5
		c1.7-6.2,4.9-11.1,9.7-14.7c4.8-3.6,10.4-5.4,17-5.4h44.9l21.9-61.7l-31.3,33.2c-6.4,6.8-15,10.2-25.8,10.2
		c-6.2,0-11.5-1.4-15.8-4.2c-4.9-3.2-7.4-7.8-7.4-13.7c0-2.8,0.5-5.7,1.5-8.5l21.9-61.5h-18.7c0.3,1.9,0.4,3.6,0.4,4.9
		c0,6.9-2.7,12.7-8.1,17.6c-5.4,4.9-11.9,7.3-19.5,7.3c-7.6,0-14.1-2.4-19.6-7.3c-5.4-4.9-8.1-10.7-8.1-17.6
		c0-7.2,2.8-13.2,8.5-18.1c5.4-4.6,11.7-6.9,18.9-6.9h67.6c4.8,0,8.7,1.4,11.6,4.2c3,2.8,4.5,6.6,4.5,11.4c0,2.7-0.5,5.4-1.5,8.2
		l-22.2,62.2l61.2-78.3c1.6-2.1,4.2-3.9,7.7-5.4c3.5-1.5,6.7-2.3,9.4-2.3H1185.2z"/>
	<path class="st0" d="M1350.4,113.2c-2.8,11.1-11.1,16.6-25,16.6h-65.1c2.3,1.5,4.2,4.3,5.6,8.4c1.5,4.1,2,7.6,1.8,10.6
		c-1,11.6-6.1,20.7-15.3,27.2c-8.8,6.3-20.2,9.5-34.3,9.6c-16.4,0.1-28.9-3.1-37.8-9.7c-7.8-5.8-11.8-13.5-11.8-23
		c0-1.9,0.2-3.7,0.5-5.6c1.8-10.5,7-18.7,15.6-24.6c9.2-6.3,21.4-9.5,36.6-9.5H1350.4z M1237.1,129.8h-23.8l-9.4,26.6
		c-0.5,1.4-0.7,2.7-0.7,4c0,6,5.5,8.9,16.6,8.9c1.3,0,2.5,0,3.4-0.1L1237.1,129.8z"/>
	<path class="st0" d="M1435.2,167.3c-1.5,5.8-4.6,10.1-9.6,13.1c-3.9,2.4-8,3.5-12.4,3.5h-43.5c-10.2,0-15.3-3.3-15.3-9.8
		c-5.4,6.5-12.7,9.8-21.9,9.8h-18.3c-5.6,0-10-1.5-13.1-4.4c-2.9-2.7-4.4-6.3-4.4-10.7c0-2.5,0.5-5.1,1.5-7.7l17.5-47.9h37.8
		l-19.4,54.1h21.1l19.3-54.1h37.3l-18.9,54.1H1435.2z"/>
</g>
</svg>
